<svg width="12" height="9" viewBox="0 0 12 9" fill="none" xmlns="http://www.w3.org/2000/svg">
<path fill-rule="evenodd" clip-rule="evenodd" d="M1.78125 2.65625C1.78125 1.62072 2.62072 0.78125 3.65625 0.78125H8.34375C9.37928 0.78125 10.2188 1.62072 10.2188 2.65625V3.62283C10.8396 3.89408 11.2734 4.51356 11.2734 5.23438V8.75H10.1016V7.92969H1.89844V8.75H0.726562V5.23438C0.726562 4.51356 1.16042 3.89408 1.78125 3.62283V2.65625ZM5.53125 3.47656H3.1875V2.65625C3.1875 2.39737 3.39737 2.1875 3.65625 2.1875H5.0625C5.32138 2.1875 5.53125 2.39737 5.53125 2.65625V3.47656ZM8.8125 3.47656H6.46875V2.65625C6.46875 2.39737 6.67862 2.1875 6.9375 2.1875H8.34375C8.60263 2.1875 8.8125 2.39737 8.8125 2.65625V3.47656ZM10.1016 6.75781H1.89844V5.23438C1.89844 4.91077 2.16077 4.64844 2.48438 4.64844H9.51562C9.83923 4.64844 10.1016 4.91077 10.1016 5.23438V6.75781Z" fill="white"/>
</svg>
