<svg width="16" height="16" viewBox="0 0 16 16" fill="none" xmlns="http://www.w3.org/2000/svg">
<path fill-rule="evenodd" clip-rule="evenodd" d="M1.71527 5.6798C0.43386 6.9612 0.433859 9.03877 1.71527 10.3202L5.67976 14.2847C6.96117 15.5661 9.03874 15.5661 10.3202 14.2847L14.2846 10.3202C15.5661 9.03878 15.5661 6.9612 14.2847 5.6798L10.3202 1.7153C9.03875 0.433891 6.96117 0.433889 5.67977 1.7153L1.71527 5.6798ZM2.82012 9.21533C2.14891 8.54411 2.14891 7.45586 2.82012 6.78465L6.78462 2.82015C7.45583 2.14894 8.54408 2.14894 9.2153 2.82015L13.1798 6.78465C13.851 7.45586 13.851 8.54412 13.1798 9.21533L9.2153 13.1798C8.54408 13.851 7.45583 13.851 6.78462 13.1798L5.7812 12.1764V10.4999C5.7812 9.5507 6.55071 8.78119 7.49995 8.78119H9.61385L6.95754 11.4375H9.16725L12.6048 7.99994L9.16737 4.5625H6.95766L9.61385 7.21869H7.49995C5.68777 7.21869 4.2187 8.68775 4.2187 10.4999V10.6139L2.82012 9.21533Z" fill="#3C3C43" fill-opacity="0.8"/>
</svg>
