<svg width="26" height="26" viewBox="0 0 32 32" fill="none"
  xmlns="http://www.w3.org/2000/svg">
  <path d="M9.94976 16.625C11.9267 15.7592 13.5092 14.1767 14.375 12.1998C15.2408 14.1767 16.8233 15.7592 18.8002 16.625C16.8233 17.4908 15.2408 19.0733 14.375 21.0502C13.5092 19.0733 11.9267 17.4908 9.94976 16.625Z" stroke="black" stroke-width="1.75"/>
  <path d="M20.3528 7.73598C20.385 7.57509 20.615 7.57509 20.6472 7.73598C20.9113 9.0565 21.9435 10.0887 23.264 10.3528C23.4249 10.385 23.4249 10.615 23.264 10.6472C21.9435 10.9113 20.9113 11.9435 20.6472 13.264C20.615 13.4249 20.385 13.4249 20.3528 13.264C20.0887 11.9435 19.0565 10.9113 17.736 10.6472C17.5751 10.615 17.5751 10.385 17.736 10.3528C19.0565 10.0887 20.0887 9.0565 20.3528 7.73598Z" fill="black"/>
</svg>
