<svg width="16" height="16" viewBox="0 0 16 16" fill="none" xmlns="http://www.w3.org/2000/svg">
<rect width="16" height="16" rx="3" fill="#FDDB32"/>
<path d="M4.88951 12.8887V11.3364C4.88951 11.21 4.79111 11.1117 4.66466 11.1117H3.11173C2.98524 11.1117 2.88687 11.21 2.88687 11.3364V12.8887C2.88687 13.0151 2.98524 13.1135 3.11173 13.1135H4.66466C4.79111 13.1135 4.88951 13.0151 4.88951 12.8887Z" fill="#191E3B"/>
<path d="M13.1196 11.5538V3.90501C13.1196 3.33605 12.6629 2.87952 12.0937 2.87952H4.44149C4.2869 2.87952 4.19557 2.93573 4.09719 3.03404L2.57238 4.57223C2.45995 4.68461 2.53724 4.85319 2.70589 4.85319H9.62729L5.3339 9.14466C5.2566 9.22192 5.22147 9.29918 5.22147 9.42562V10.5565C5.22147 10.6899 5.31284 10.7812 5.44632 10.7812H6.57765C6.71114 10.7812 6.78843 10.7461 6.8587 10.6688L11.1521 6.37732V13.2957C11.1521 13.4642 11.3207 13.5415 11.4332 13.4291L12.972 11.898C13.0634 11.7996 13.1196 11.7083 13.1196 11.5538Z" fill="#191E3B"/>
</svg>
